<mxfile host="app.diagrams.net" modified="2024-03-25T15:04:30.102Z" agent="Mozilla/5.0 (Macintosh; Intel Mac OS X 10_15_7) AppleWebKit/537.36 (KHTML, like Gecko) Chrome/123.0.0.0 Safari/537.36" etag="_3iouCN19o5WXNUXgcPm" version="24.1.0" type="github">
  <diagram name="第 1 页" id="EsttiOnXiiwy4lGlENF1">
    <mxGraphModel dx="954" dy="606" grid="1" gridSize="10" guides="1" tooltips="1" connect="1" arrows="1" fold="1" page="1" pageScale="1" pageWidth="827" pageHeight="1169" math="0" shadow="0">
      <root>
        <mxCell id="0" />
        <mxCell id="1" parent="0" />
        <mxCell id="PUHJB4aUjXVpeecvIC8U-1" value="输入 n=4, k = 2" style="text;html=1;align=center;verticalAlign=middle;resizable=0;points=[];autosize=1;strokeColor=none;fillColor=none;" vertex="1" parent="1">
          <mxGeometry x="70" y="40" width="100" height="30" as="geometry" />
        </mxCell>
        <mxCell id="PUHJB4aUjXVpeecvIC8U-2" value="在1，2，3，4中取两个数" style="rounded=0;whiteSpace=wrap;html=1;" vertex="1" parent="1">
          <mxGeometry x="380" y="100" width="170" height="50" as="geometry" />
        </mxCell>
        <mxCell id="PUHJB4aUjXVpeecvIC8U-3" value="第一层" style="text;html=1;align=center;verticalAlign=middle;resizable=0;points=[];autosize=1;strokeColor=none;fillColor=none;" vertex="1" parent="1">
          <mxGeometry x="70" y="110" width="60" height="30" as="geometry" />
        </mxCell>
        <mxCell id="PUHJB4aUjXVpeecvIC8U-4" value="在2，3，4中取一个数" style="rounded=0;whiteSpace=wrap;html=1;strokeColor=#FF3333;" vertex="1" parent="1">
          <mxGeometry x="180" y="240" width="130" height="40" as="geometry" />
        </mxCell>
        <mxCell id="PUHJB4aUjXVpeecvIC8U-5" value="在3，4中取一个数" style="rounded=0;whiteSpace=wrap;html=1;" vertex="1" parent="1">
          <mxGeometry x="370" y="240" width="120" height="40" as="geometry" />
        </mxCell>
        <mxCell id="PUHJB4aUjXVpeecvIC8U-6" value="在4中取一个数" style="rounded=0;whiteSpace=wrap;html=1;" vertex="1" parent="1">
          <mxGeometry x="550" y="240" width="90" height="40" as="geometry" />
        </mxCell>
        <mxCell id="PUHJB4aUjXVpeecvIC8U-7" value="空" style="rounded=0;whiteSpace=wrap;html=1;" vertex="1" parent="1">
          <mxGeometry x="690" y="240" width="120" height="40" as="geometry" />
        </mxCell>
        <mxCell id="PUHJB4aUjXVpeecvIC8U-8" value="" style="endArrow=classic;html=1;rounded=0;exitX=0.5;exitY=1;exitDx=0;exitDy=0;entryX=0.5;entryY=0;entryDx=0;entryDy=0;fillColor=#e51400;strokeColor=#FF3333;" edge="1" parent="1" source="PUHJB4aUjXVpeecvIC8U-2" target="PUHJB4aUjXVpeecvIC8U-4">
          <mxGeometry width="50" height="50" relative="1" as="geometry">
            <mxPoint x="340" y="220" as="sourcePoint" />
            <mxPoint x="250" y="220" as="targetPoint" />
          </mxGeometry>
        </mxCell>
        <mxCell id="PUHJB4aUjXVpeecvIC8U-9" value="取1" style="edgeLabel;html=1;align=center;verticalAlign=middle;resizable=0;points=[];" vertex="1" connectable="0" parent="PUHJB4aUjXVpeecvIC8U-8">
          <mxGeometry x="0.0007" y="-1" relative="1" as="geometry">
            <mxPoint as="offset" />
          </mxGeometry>
        </mxCell>
        <mxCell id="PUHJB4aUjXVpeecvIC8U-10" value="" style="endArrow=classic;html=1;rounded=0;exitX=0.5;exitY=1;exitDx=0;exitDy=0;entryX=0.5;entryY=0;entryDx=0;entryDy=0;" edge="1" parent="1" source="PUHJB4aUjXVpeecvIC8U-2" target="PUHJB4aUjXVpeecvIC8U-5">
          <mxGeometry width="50" height="50" relative="1" as="geometry">
            <mxPoint x="475" y="160" as="sourcePoint" />
            <mxPoint x="262" y="244" as="targetPoint" />
          </mxGeometry>
        </mxCell>
        <mxCell id="PUHJB4aUjXVpeecvIC8U-11" value="取2" style="edgeLabel;html=1;align=center;verticalAlign=middle;resizable=0;points=[];" vertex="1" connectable="0" parent="PUHJB4aUjXVpeecvIC8U-10">
          <mxGeometry x="-0.015" y="2" relative="1" as="geometry">
            <mxPoint as="offset" />
          </mxGeometry>
        </mxCell>
        <mxCell id="PUHJB4aUjXVpeecvIC8U-12" value="" style="endArrow=classic;html=1;rounded=0;exitX=0.5;exitY=1;exitDx=0;exitDy=0;entryX=0.5;entryY=0;entryDx=0;entryDy=0;" edge="1" parent="1" source="PUHJB4aUjXVpeecvIC8U-2" target="PUHJB4aUjXVpeecvIC8U-6">
          <mxGeometry width="50" height="50" relative="1" as="geometry">
            <mxPoint x="475" y="160" as="sourcePoint" />
            <mxPoint x="440" y="250" as="targetPoint" />
          </mxGeometry>
        </mxCell>
        <mxCell id="PUHJB4aUjXVpeecvIC8U-13" value="取3" style="edgeLabel;html=1;align=center;verticalAlign=middle;resizable=0;points=[];" vertex="1" connectable="0" parent="PUHJB4aUjXVpeecvIC8U-12">
          <mxGeometry x="0.03" y="-1" relative="1" as="geometry">
            <mxPoint as="offset" />
          </mxGeometry>
        </mxCell>
        <mxCell id="PUHJB4aUjXVpeecvIC8U-14" value="" style="endArrow=classic;html=1;rounded=0;exitX=0.5;exitY=1;exitDx=0;exitDy=0;entryX=0.5;entryY=0;entryDx=0;entryDy=0;" edge="1" parent="1" source="PUHJB4aUjXVpeecvIC8U-2" target="PUHJB4aUjXVpeecvIC8U-7">
          <mxGeometry width="50" height="50" relative="1" as="geometry">
            <mxPoint x="475" y="160" as="sourcePoint" />
            <mxPoint x="605" y="250" as="targetPoint" />
          </mxGeometry>
        </mxCell>
        <mxCell id="PUHJB4aUjXVpeecvIC8U-15" value="取4" style="edgeLabel;html=1;align=center;verticalAlign=middle;resizable=0;points=[];" vertex="1" connectable="0" parent="PUHJB4aUjXVpeecvIC8U-14">
          <mxGeometry x="-0.0212" relative="1" as="geometry">
            <mxPoint as="offset" />
          </mxGeometry>
        </mxCell>
        <mxCell id="PUHJB4aUjXVpeecvIC8U-16" value="第二层" style="text;html=1;align=center;verticalAlign=middle;resizable=0;points=[];autosize=1;strokeColor=none;fillColor=none;" vertex="1" parent="1">
          <mxGeometry x="70" y="245" width="60" height="30" as="geometry" />
        </mxCell>
        <mxCell id="PUHJB4aUjXVpeecvIC8U-17" value="[1,2]" style="text;html=1;align=center;verticalAlign=middle;resizable=0;points=[];autosize=1;strokeColor=none;fillColor=none;fontColor=#FF3333;" vertex="1" parent="1">
          <mxGeometry x="155" y="408" width="50" height="30" as="geometry" />
        </mxCell>
        <mxCell id="PUHJB4aUjXVpeecvIC8U-18" value="[1,3]" style="text;html=1;align=center;verticalAlign=middle;resizable=0;points=[];autosize=1;strokeColor=none;fillColor=none;" vertex="1" parent="1">
          <mxGeometry x="225" y="408" width="50" height="30" as="geometry" />
        </mxCell>
        <mxCell id="PUHJB4aUjXVpeecvIC8U-19" value="[1,4]" style="text;html=1;align=center;verticalAlign=middle;resizable=0;points=[];autosize=1;strokeColor=none;fillColor=none;" vertex="1" parent="1">
          <mxGeometry x="300" y="408" width="50" height="30" as="geometry" />
        </mxCell>
        <mxCell id="PUHJB4aUjXVpeecvIC8U-20" value="[2,3]" style="text;html=1;align=center;verticalAlign=middle;resizable=0;points=[];autosize=1;strokeColor=none;fillColor=none;" vertex="1" parent="1">
          <mxGeometry x="370" y="408" width="50" height="30" as="geometry" />
        </mxCell>
        <mxCell id="PUHJB4aUjXVpeecvIC8U-21" value="[2,4]" style="text;html=1;align=center;verticalAlign=middle;resizable=0;points=[];autosize=1;strokeColor=none;fillColor=none;" vertex="1" parent="1">
          <mxGeometry x="450" y="408" width="50" height="30" as="geometry" />
        </mxCell>
        <mxCell id="PUHJB4aUjXVpeecvIC8U-22" value="[3,4]" style="text;html=1;align=center;verticalAlign=middle;resizable=0;points=[];autosize=1;strokeColor=none;fillColor=none;" vertex="1" parent="1">
          <mxGeometry x="590" y="410" width="50" height="30" as="geometry" />
        </mxCell>
        <mxCell id="PUHJB4aUjXVpeecvIC8U-23" value="" style="endArrow=classic;html=1;rounded=0;entryX=0.53;entryY=-0.033;entryDx=0;entryDy=0;entryPerimeter=0;exitX=0.5;exitY=1;exitDx=0;exitDy=0;strokeColor=#FF3333;" edge="1" parent="1" source="PUHJB4aUjXVpeecvIC8U-4" target="PUHJB4aUjXVpeecvIC8U-17">
          <mxGeometry width="50" height="50" relative="1" as="geometry">
            <mxPoint x="370" y="310" as="sourcePoint" />
            <mxPoint x="420" y="260" as="targetPoint" />
            <Array as="points" />
          </mxGeometry>
        </mxCell>
        <mxCell id="PUHJB4aUjXVpeecvIC8U-24" value="取2" style="edgeLabel;html=1;align=center;verticalAlign=middle;resizable=0;points=[];" vertex="1" connectable="0" parent="PUHJB4aUjXVpeecvIC8U-23">
          <mxGeometry x="0.0173" y="1" relative="1" as="geometry">
            <mxPoint as="offset" />
          </mxGeometry>
        </mxCell>
        <mxCell id="PUHJB4aUjXVpeecvIC8U-25" value="" style="endArrow=classic;html=1;rounded=0;exitX=0.5;exitY=1;exitDx=0;exitDy=0;" edge="1" parent="1" source="PUHJB4aUjXVpeecvIC8U-4" target="PUHJB4aUjXVpeecvIC8U-18">
          <mxGeometry width="50" height="50" relative="1" as="geometry">
            <mxPoint x="255" y="290" as="sourcePoint" />
            <mxPoint x="192" y="417" as="targetPoint" />
          </mxGeometry>
        </mxCell>
        <mxCell id="PUHJB4aUjXVpeecvIC8U-26" value="取3" style="edgeLabel;html=1;align=center;verticalAlign=middle;resizable=0;points=[];" vertex="1" connectable="0" parent="PUHJB4aUjXVpeecvIC8U-25">
          <mxGeometry x="0.0001" relative="1" as="geometry">
            <mxPoint as="offset" />
          </mxGeometry>
        </mxCell>
        <mxCell id="PUHJB4aUjXVpeecvIC8U-27" value="" style="endArrow=classic;html=1;rounded=0;exitX=0.5;exitY=1;exitDx=0;exitDy=0;entryX=0.49;entryY=-0.033;entryDx=0;entryDy=0;entryPerimeter=0;" edge="1" parent="1" source="PUHJB4aUjXVpeecvIC8U-4" target="PUHJB4aUjXVpeecvIC8U-19">
          <mxGeometry width="50" height="50" relative="1" as="geometry">
            <mxPoint x="255" y="290" as="sourcePoint" />
            <mxPoint x="259" y="418" as="targetPoint" />
          </mxGeometry>
        </mxCell>
        <mxCell id="PUHJB4aUjXVpeecvIC8U-28" value="取4" style="edgeLabel;html=1;align=center;verticalAlign=middle;resizable=0;points=[];" vertex="1" connectable="0" parent="PUHJB4aUjXVpeecvIC8U-27">
          <mxGeometry x="-0.0259" relative="1" as="geometry">
            <mxPoint as="offset" />
          </mxGeometry>
        </mxCell>
        <mxCell id="PUHJB4aUjXVpeecvIC8U-29" value="" style="endArrow=classic;html=1;rounded=0;exitX=0.5;exitY=1;exitDx=0;exitDy=0;entryX=0.47;entryY=-0.033;entryDx=0;entryDy=0;entryPerimeter=0;" edge="1" parent="1" source="PUHJB4aUjXVpeecvIC8U-5" target="PUHJB4aUjXVpeecvIC8U-20">
          <mxGeometry width="50" height="50" relative="1" as="geometry">
            <mxPoint x="255" y="290" as="sourcePoint" />
            <mxPoint x="335" y="417" as="targetPoint" />
          </mxGeometry>
        </mxCell>
        <mxCell id="PUHJB4aUjXVpeecvIC8U-30" value="取3" style="edgeLabel;html=1;align=center;verticalAlign=middle;resizable=0;points=[];" vertex="1" connectable="0" parent="PUHJB4aUjXVpeecvIC8U-29">
          <mxGeometry x="0.0041" y="1" relative="1" as="geometry">
            <mxPoint as="offset" />
          </mxGeometry>
        </mxCell>
        <mxCell id="PUHJB4aUjXVpeecvIC8U-31" value="" style="endArrow=classic;html=1;rounded=0;exitX=0.5;exitY=1;exitDx=0;exitDy=0;" edge="1" parent="1" source="PUHJB4aUjXVpeecvIC8U-5" target="PUHJB4aUjXVpeecvIC8U-21">
          <mxGeometry width="50" height="50" relative="1" as="geometry">
            <mxPoint x="440" y="290" as="sourcePoint" />
            <mxPoint x="404" y="417" as="targetPoint" />
          </mxGeometry>
        </mxCell>
        <mxCell id="PUHJB4aUjXVpeecvIC8U-32" value="取4" style="edgeLabel;html=1;align=center;verticalAlign=middle;resizable=0;points=[];" vertex="1" connectable="0" parent="PUHJB4aUjXVpeecvIC8U-31">
          <mxGeometry x="0.0114" y="-1" relative="1" as="geometry">
            <mxPoint as="offset" />
          </mxGeometry>
        </mxCell>
        <mxCell id="PUHJB4aUjXVpeecvIC8U-33" value="" style="endArrow=classic;html=1;rounded=0;exitX=0.5;exitY=1;exitDx=0;exitDy=0;" edge="1" parent="1" source="PUHJB4aUjXVpeecvIC8U-6" target="PUHJB4aUjXVpeecvIC8U-22">
          <mxGeometry width="50" height="50" relative="1" as="geometry">
            <mxPoint x="440" y="290" as="sourcePoint" />
            <mxPoint x="480" y="418" as="targetPoint" />
          </mxGeometry>
        </mxCell>
        <mxCell id="PUHJB4aUjXVpeecvIC8U-34" value="取4" style="edgeLabel;html=1;align=center;verticalAlign=middle;resizable=0;points=[];" vertex="1" connectable="0" parent="PUHJB4aUjXVpeecvIC8U-33">
          <mxGeometry x="-0.0119" y="2" relative="1" as="geometry">
            <mxPoint as="offset" />
          </mxGeometry>
        </mxCell>
        <mxCell id="PUHJB4aUjXVpeecvIC8U-35" value="第三层" style="text;html=1;align=center;verticalAlign=middle;resizable=0;points=[];autosize=1;strokeColor=none;fillColor=none;" vertex="1" parent="1">
          <mxGeometry x="70" y="408" width="60" height="30" as="geometry" />
        </mxCell>
      </root>
    </mxGraphModel>
  </diagram>
</mxfile>
